<?xml version="1.0" encoding="utf-8"?>
<!-- Generator: Adobe Illustrator 17.1.0, SVG Export Plug-In . SVG Version: 6.00 Build 0)  -->
<!DOCTYPE svg PUBLIC "-//W3C//DTD SVG 1.1//EN" "http://www.w3.org/Graphics/SVG/1.1/DTD/svg11.dtd">
<svg version="1.1" id="Layer_1" xmlns="http://www.w3.org/2000/svg" xmlns:xlink="http://www.w3.org/1999/xlink" x="0px" y="0px"
	 viewBox="0 0 284 240" enable-background="new 0 0 284 240" xml:space="preserve">
<g>
	<polygon fill="none" points="76.7,198.2 87.3,228 98.1,197.8 87.5,167.9 	"/>
	<polygon fill="none" points="141.3,15.5 130.7,45.4 141.5,75.5 152,45.7 	"/>
	<polygon fill="none" points="33.2,15.1 22.5,45.4 74.1,190.7 84.8,160.4 	"/>
	<polygon fill="none" points="90.1,160.4 100.7,190.3 138.8,83 128.1,52.9 	"/>
	<polygon fill="none" points="10.1,10.5 19.9,37.9 29.6,10.5 	"/>
	<polygon fill="none" points="154.7,53.2 144.1,83 182.2,190.3 192.8,160.5 	"/>
	<polygon fill="none" points="198.1,160.5 208.8,190.7 260.3,45.7 249.5,15.5 	"/>
	<polygon fill="none" points="253.1,10.5 262.9,38.3 272.8,10.5 	"/>
	<polygon fill="none" points="184.8,197.8 195.6,228 206.2,198.2 195.4,167.9 	"/>
	<path fill="#D1D3D4" d="M247.8,5.5L195.4,153L141,1.6L87.5,152.9L35.3,5.8l-0.1-0.3H3L85,236.3l0.1,0.3h4.5l51.9-146.2l51.8,145.9
		l0.1,0.3h4.5l82-231.1L247.8,5.5z M10.1,10.5h19.4l-9.7,27.4L10.1,10.5z M22.5,45.4l10.7-30.3l51.6,145.3l-10.7,30.3L22.5,45.4z
		 M87.3,228l-10.6-29.8l10.7-30.3l10.6,29.9L87.3,228z M100.7,190.3l-10.6-29.9l38-107.5L138.8,83L100.7,190.3z M130.7,45.4
		l10.6-29.9L152,45.7l-10.6,29.8L130.7,45.4z M144.1,83l10.6-29.8l38.1,107.3l-10.6,29.8L144.1,83z M195.6,228l-10.7-30.3l10.6-29.8
		l10.7,30.3L195.6,228z M208.8,190.7l-10.7-30.3l51.5-145l10.7,30.3L208.8,190.7z M253.1,10.5h19.7l-9.9,27.8L253.1,10.5z"/>
</g>
</svg>
